<svg width="700" height="700" viewBox="0 0 700 700" fill="none" xmlns="http://www.w3.org/2000/svg">
<g clip-path="url(#clip0_459_2)">
<rect width="700" height="700" rx="100" fill="white"/>
<g filter="url(#filter0_f_459_2)">
<path d="M136.631 160.352L143.981 173.268L130.394 180.999L137.744 193.915L124.157 201.647L131.507 214.563L117.92 222.294L125.27 235.21L138.857 227.478L152.443 219.747L159.793 232.662L173.38 224.931L180.73 237.846L194.317 230.114L201.667 243.03L215.254 235.298L222.603 248.214L229.953 261.13L237.303 274.046L244.653 286.961L252.003 299.877L259.352 312.793L245.765 320.524L253.115 333.44L239.528 341.172L246.878 354.088L233.291 361.819L240.641 374.735L227.054 382.467L234.404 395.383L220.817 403.114L207.23 410.846L199.88 397.93L213.467 390.199L206.117 377.283L198.768 364.367L191.418 351.451L184.068 338.536L176.718 325.62L169.368 312.704L155.781 320.436L163.131 333.352L170.481 346.268L156.894 353.999L164.244 366.915L171.594 379.831L158.007 387.562L165.357 400.478L151.77 408.21L159.119 421.126L145.532 428.857L131.945 436.589L139.295 449.505L125.708 457.237L112.121 464.968L98.5345 472.7L84.9476 480.432L71.3606 488.164L57.7737 495.895L50.4239 482.98L64.0108 475.248L77.5978 467.516L70.248 454.6L62.8982 441.685L76.4851 433.953L69.1353 421.037L82.7223 413.305L75.3725 400.39L88.9594 392.658L81.6096 379.742L95.1966 372.011L87.8468 359.095L101.434 351.363L115.021 343.631L107.671 330.716L100.321 317.8L113.908 310.068L106.558 297.152L120.145 289.421L112.795 276.505L99.2084 284.237L85.6215 291.968L92.9712 304.884L100.321 317.8L86.7341 325.532L94.0839 338.447L80.497 346.179L87.8468 359.095L74.2598 366.827L60.6729 374.558L68.0227 387.474L54.4358 395.206L40.8488 402.938L27.2619 410.669L19.9121 397.754L6.32518 405.485L-1.02461 392.57L-14.6115 400.301L-28.1985 408.033L-41.7854 415.765L-49.1352 402.849L-35.5483 395.117L-42.8981 382.202L-50.2478 369.286L-36.6609 361.554L-44.0107 348.639L-30.4238 340.907L-37.7736 327.991L-24.1866 320.259L-10.5997 312.528L-17.9495 299.612L-4.36256 291.88L9.22437 284.148L1.87458 271.233L15.4615 263.501L8.11172 250.585L21.6986 242.853L14.3489 229.938L0.761926 237.669L-12.825 245.401L-20.1748 232.485L-33.7617 240.217L-41.1115 227.302L-48.4613 214.386L-55.8111 201.47L-69.398 209.202L-76.7478 196.286L-90.3347 204.018L-97.6845 191.102L-111.271 198.834L-118.621 185.918L-125.971 173.002L-139.558 180.734L-153.145 188.466L-160.495 175.55L-146.908 167.819L-133.321 160.087L-119.734 152.355L-106.147 144.623L-92.56 136.892L-85.2103 149.807L-71.6233 142.075L-78.9731 129.16L-65.3862 121.428L-58.0364 134.344L-44.4495 126.612L-37.0997 139.528L-29.7499 152.443L-16.163 144.712L-2.57603 136.98L4.77376 149.896L18.3607 142.164L25.7105 155.08L39.2974 147.348L46.6472 160.264L53.997 173.179L61.3468 186.095L68.6966 199.011L55.1096 206.742L41.5227 214.474L48.8725 227.39L62.4594 219.658L69.8092 232.574L83.3962 224.842L76.0464 211.926L68.6966 199.011L82.2835 191.279L95.8704 183.547L88.5206 170.631L74.9337 178.363L67.5839 165.447L60.2341 152.532L52.8843 139.616L39.2974 147.348L31.9476 134.432L24.5978 121.516L11.0109 129.248L-2.57603 136.98L-9.92582 124.064L-23.5127 131.796L-30.8625 118.88L-44.4495 126.612L-51.7993 113.696L-65.3862 121.428L-72.736 108.512L-59.149 100.781L-66.4988 87.8648L-73.8486 74.9491L-87.4356 82.6809L-101.022 90.4126L-108.372 77.4969L-94.7853 69.7651L-81.1984 62.0334L-67.6115 54.3016L-54.0246 46.5699L-40.4376 38.8381L-33.0878 51.7539L-19.5009 44.0221L-12.1511 56.9378L1.43581 49.2061L8.7856 62.1218L22.3725 54.39L29.7223 67.3057L37.0721 80.2215L44.4219 93.1372L51.7717 106.053L65.3586 98.3211L58.0088 85.4054L71.5958 77.6737L64.246 64.758L77.8329 57.0262L70.4831 44.1105L84.07 36.3787L91.4198 49.2945L98.7696 62.2102L112.357 54.4784L119.706 67.3941L127.056 80.3098L134.406 93.2256L141.756 106.141L149.106 119.057L156.455 131.973L142.868 139.704L150.218 152.62L136.631 160.352Z" fill="#E5C3DA"/>
<path d="M-173.643 405.309L-160.056 397.577L-146.469 389.845L-153.819 376.929L-140.232 369.198L-147.582 356.282L-133.995 348.55L-141.345 335.634L-148.694 322.719L-135.107 314.987L-121.52 307.255L-114.171 320.171L-100.584 312.439L-86.9968 304.707L-79.647 317.623L-66.0601 309.891L-52.4731 302.16L-59.8229 289.244L-46.236 281.512L-53.5858 268.596L-39.9989 260.865L-47.3487 247.949L-54.6984 235.033L-68.2854 242.765L-75.6352 229.849L-89.2221 237.581L-96.5719 224.665L-110.159 232.397L-123.746 240.129L-137.333 247.861L-150.92 255.592L-164.507 263.324L-178.093 271.056L-170.744 283.972L-184.331 291.703L-176.981 304.619L-190.568 312.351L-183.218 325.266L-196.805 332.998L-210.392 340.73L-223.979 348.462L-216.629 361.377L-230.216 369.109L-222.866 382.025L-215.516 394.941L-208.166 407.856L-200.817 420.772L-193.467 433.688L-179.88 425.956L-166.293 418.224L-173.643 405.309Z" fill="#E5C3DA"/>
<path d="M115.909 564.738L129.154 557.201L136.694 570.451L149.939 562.914L157.478 576.163L170.723 568.626L178.263 581.875L191.507 574.338L183.968 561.089L176.428 547.84L189.673 540.302L182.133 527.053L195.378 519.516L187.839 506.267L201.083 498.73L193.544 485.48L206.789 477.943L220.033 470.406L233.278 462.869L246.523 455.332L259.768 447.795L273.013 440.258L280.552 453.507L293.797 445.97L301.337 459.22L314.581 451.682L322.121 464.932L335.366 457.395L342.906 470.644L356.15 463.107L363.69 476.356L371.23 489.606L357.985 497.143L350.445 483.893L337.2 491.431L323.956 498.968L310.711 506.505L297.466 514.042L284.221 521.579L270.976 529.116L278.516 542.365L291.761 534.828L305.006 527.291L312.545 540.54L325.79 533.003L339.035 525.466L346.575 538.716L359.819 531.179L367.359 544.428L380.604 536.891L388.143 550.14L395.683 563.389L408.928 555.852L416.468 569.102L424.007 582.351L431.547 595.6L439.086 608.85L446.626 622.099L454.166 635.348L440.921 642.885L433.381 629.636L425.842 616.387L412.597 623.924L399.352 631.461L391.812 618.212L378.568 625.749L371.028 612.499L357.783 620.036L350.243 606.787L336.999 614.324L329.459 601.075L316.214 608.612L308.675 595.363L301.135 582.113L287.89 589.65L274.645 597.187L267.106 583.938L253.861 591.475L246.321 578.226L233.076 585.763L240.616 599.012L248.156 612.261L261.4 604.724L274.645 597.187L282.185 610.437L295.43 602.9L302.969 616.149L316.214 608.612L323.754 621.861L331.293 635.111L344.538 627.573L352.078 640.823L359.618 654.072L367.157 667.321L353.912 674.859L361.452 688.108L348.207 695.645L355.747 708.894L363.286 722.144L370.826 735.393L357.581 742.93L350.042 729.681L336.797 737.218L323.552 744.755L316.012 731.505L302.768 739.043L295.228 725.793L281.983 733.33L274.444 720.081L266.904 706.832L253.659 714.369L246.119 701.119L238.58 687.87L225.335 695.407L217.795 682.158L204.551 689.695L197.011 676.445L183.766 683.983L191.306 697.232L198.845 710.481L185.601 718.018L193.14 731.268L179.895 738.805L166.651 746.342L153.406 753.879L160.945 767.128L147.701 774.665L155.24 787.915L141.995 795.452L149.535 808.701L136.29 816.238L123.045 823.775L130.585 837.024L138.125 850.274L124.88 857.811L117.34 844.561L109.801 831.312L102.261 818.063L94.7213 804.813L87.1817 791.564L100.426 784.027L92.8868 770.778L79.642 778.315L72.1024 765.065L85.3472 757.528L77.8076 744.279L91.0524 736.742L104.297 729.205L96.7575 715.956L89.2179 702.706L102.463 695.169L94.9231 681.92L108.168 674.383L100.628 661.133L113.873 653.596L127.118 646.059L140.363 638.522L153.607 630.985L161.147 644.235L168.687 657.484L181.932 649.947L174.392 636.697L187.637 629.16L180.097 615.911L166.852 623.448L153.607 630.985L146.068 617.736L138.528 604.486L125.283 612.024L132.823 625.273L119.578 632.81L106.333 640.347L93.0886 647.884L100.628 661.133L87.3834 668.671L74.1386 676.208L81.6783 689.457L89.2179 702.706L75.9731 710.243L83.5127 723.493L70.2679 731.03L77.8076 744.279L64.5628 751.816L72.1024 765.065L58.8576 772.603L51.3179 759.353L38.0731 766.89L24.8283 774.427L32.368 787.677L39.9076 800.926L26.6628 808.463L19.1231 795.214L11.5835 781.964L4.04387 768.715L-3.49577 755.466L-11.0354 742.216L2.2094 734.679L-5.33024 721.43L7.91457 713.893L0.374928 700.644L13.6197 693.106L6.0801 679.857L19.3249 672.32L32.5697 664.783L45.8145 657.246L59.0593 649.709L51.5197 636.46L38.2749 643.997L30.7353 630.747L17.4904 638.284L9.9508 625.035L-3.29401 632.572L-10.8337 619.323L2.41116 611.786L15.656 604.249L8.11633 590.999L21.3611 583.462L34.606 575.925L47.8508 568.388L61.0956 560.851L74.3404 553.314L87.5852 545.777L95.1248 559.026L108.37 551.489L115.909 564.738Z" fill="#E5C3DA"/>
<path d="M357.38 865.824L349.84 852.574L342.3 839.325L329.055 846.862L321.516 833.613L308.271 841.15L300.731 827.9L287.487 835.437L274.242 842.975L266.702 829.725L259.162 816.476L272.407 808.939L264.868 795.689L257.328 782.44L270.573 774.903L263.033 761.654L255.494 748.404L242.249 755.941L234.709 742.692L221.464 750.229L213.925 736.98L200.68 744.517L187.435 752.054L194.975 765.303L181.73 772.84L189.269 786.09L176.025 793.627L183.564 806.876L191.104 820.125L198.644 833.375L206.183 846.624L213.723 859.873L221.263 873.123L234.507 865.586L242.047 878.835L255.292 871.298L262.831 884.547L276.076 877.01L283.616 890.26L291.155 903.509L298.695 916.758L311.94 909.221L319.48 922.471L332.724 914.933L345.969 907.396L359.214 899.859L372.459 892.322L385.704 884.785L378.164 871.536L370.624 858.287L357.38 865.824Z" fill="#E5C3DA"/>
<path d="M547.039 565.035L539.502 551.79L552.752 544.251L545.214 531.006L558.464 523.466L550.927 510.221L564.176 502.682L556.639 489.437L543.39 496.977L530.14 504.516L522.603 491.271L509.354 498.811L501.817 485.566L488.568 493.106L481.03 479.861L467.781 487.401L460.244 474.156L452.707 460.911L445.17 447.666L437.633 434.421L430.096 421.177L422.559 407.932L435.808 400.392L428.271 387.147L441.52 379.608L433.983 366.363L447.233 358.823L439.696 345.578L452.945 338.039L445.408 324.794L458.657 317.254L471.906 309.715L479.444 322.96L466.194 330.499L473.731 343.744L481.268 356.989L488.805 370.234L496.342 383.478L503.88 396.723L511.417 409.968L524.666 402.428L517.129 389.184L509.592 375.939L522.841 368.399L515.304 355.154L507.767 341.909L521.016 334.37L513.479 321.125L526.729 313.585L519.192 300.341L532.441 292.801L545.69 285.261L538.153 272.016L551.402 264.477L564.652 256.937L577.901 249.398L591.15 241.858L604.4 234.318L617.649 226.779L625.186 240.023L611.937 247.563L598.688 255.103L606.225 268.348L613.762 281.592L600.512 289.132L608.049 302.377L594.8 309.916L602.337 323.161L589.088 330.701L596.625 343.946L583.376 351.485L590.913 364.73L577.663 372.27L564.414 379.809L571.951 393.054L579.488 406.299L566.239 413.839L573.776 427.084L560.526 434.623L568.064 447.868L581.313 440.328L594.562 432.789L587.025 419.544L579.488 406.299L592.737 398.759L585.2 385.515L598.45 377.975L590.913 364.73L604.162 357.191L617.411 349.651L609.874 336.406L623.124 328.866L636.373 321.327L649.622 313.787L657.159 327.032L670.409 319.492L677.946 332.737L691.195 325.197L704.444 317.658L717.694 310.118L725.231 323.363L711.981 330.903L719.518 344.147L727.056 357.392L713.806 364.932L721.343 378.177L708.094 385.716L715.631 398.961L702.382 406.501L689.132 414.04L696.669 427.285L683.42 434.825L670.171 442.365L677.708 455.609L664.458 463.149L671.996 476.394L658.746 483.933L666.283 497.178L679.533 489.639L692.782 482.099L700.319 495.344L713.568 487.804L721.105 501.049L728.642 514.294L736.18 527.539L749.429 519.999L756.966 533.244L770.215 525.704L777.752 538.949L791.002 531.409L798.539 544.654L806.076 557.899L819.325 550.359L832.574 542.82L840.112 556.064L826.862 563.604L813.613 571.144L800.364 578.683L787.114 586.223L773.865 593.763L766.328 580.518L753.078 588.057L760.616 601.302L747.366 608.842L739.829 595.597L726.58 603.137L719.043 589.892L711.506 576.647L698.256 584.187L685.007 591.726L677.47 578.482L664.221 586.021L656.684 572.776L643.434 580.316L635.897 567.071L628.36 553.826L620.823 540.582L613.286 527.337L626.535 519.797L639.785 512.258L632.248 499.013L618.998 506.552L611.461 493.308L598.212 500.847L605.749 514.092L613.286 527.337L600.037 534.876L586.787 542.416L594.324 555.661L607.574 548.121L615.111 561.366L622.648 574.611L630.185 587.856L643.434 580.316L650.971 593.561L658.508 606.806L671.758 599.266L685.007 591.726L692.544 604.971L705.793 597.432L713.33 610.676L726.58 603.137L734.117 616.382L747.366 608.842L754.903 622.087L741.654 629.626L749.191 642.871L756.728 656.116L769.977 648.576L783.227 641.037L790.764 654.282L777.514 661.821L764.265 669.361L751.016 676.9L737.766 684.44L724.517 691.98L716.98 678.735L703.731 686.275L696.194 673.03L682.944 680.569L675.407 667.325L662.158 674.864L654.621 661.619L647.084 648.375L639.547 635.13L632.01 621.885L618.76 629.425L626.297 642.669L613.048 650.209L620.585 663.454L607.336 670.994L614.873 684.238L601.624 691.778L594.086 678.533L586.549 665.288L573.3 672.828L565.763 659.583L558.226 646.338L550.689 633.094L543.152 619.849L535.615 606.604L528.078 593.359L541.327 585.82L533.79 572.575L547.039 565.035Z" fill="#E5C3DA"/>
<path d="M848.124 323.565L834.875 331.104L821.626 338.644L829.163 351.889L815.913 359.429L823.45 372.673L810.201 380.213L817.738 393.458L825.275 406.703L812.026 414.242L798.777 421.782L791.24 408.537L777.99 416.077L764.741 423.616L757.204 410.372L743.954 417.911L730.705 425.451L738.242 438.696L724.993 446.235L732.53 459.48L719.281 467.02L726.818 480.265L734.355 493.509L747.604 485.97L755.141 499.215L768.39 491.675L775.928 504.92L789.177 497.38L802.426 489.84L815.676 482.301L828.925 474.761L842.174 467.221L855.424 459.682L847.886 446.437L861.136 438.897L853.599 425.653L866.848 418.113L859.311 404.868L872.56 397.328L885.81 389.789L899.059 382.249L891.522 369.004L904.771 361.465L897.234 348.22L889.697 334.975L882.16 321.73L874.623 308.485L867.086 295.241L853.837 302.78L840.587 310.32L848.124 323.565Z" fill="#E5C3DA"/>
<path d="M571.275 164.313L558.03 171.85L550.491 158.6L537.246 166.138L529.706 152.888L516.462 160.425L508.922 147.176L495.677 154.713L503.217 167.962L510.756 181.212L497.512 188.749L505.051 201.998L491.806 209.535L499.346 222.784L486.101 230.322L493.641 243.571L480.396 251.108L467.151 258.645L453.906 266.182L440.662 273.719L427.417 281.256L414.172 288.793L406.632 275.544L393.388 283.081L385.848 269.832L372.603 277.369L365.063 264.119L351.819 271.656L344.279 258.407L331.034 265.944L323.495 252.695L315.955 239.446L329.2 231.908L336.739 245.158L349.984 237.621L363.229 230.084L376.474 222.547L389.719 215.01L402.963 207.472L416.208 199.935L408.669 186.686L395.424 194.223L382.179 201.76L374.639 188.511L361.395 196.048L348.15 203.585L340.61 190.336L327.365 197.873L319.826 184.623L306.581 192.16L299.041 178.911L291.502 165.662L278.257 173.199L270.717 159.95L263.177 146.7L255.638 133.451L248.098 120.202L240.559 106.952L233.019 93.7028L246.264 86.1658L253.803 99.4151L261.343 112.664L274.588 105.127L287.833 97.5903L295.372 110.84L308.617 103.303L316.157 116.552L329.401 109.015L336.941 122.264L350.186 114.727L357.726 127.976L370.97 120.439L378.51 133.689L386.05 146.938L399.294 139.401L412.539 131.864L420.079 145.113L433.324 137.576L440.863 150.826L454.108 143.288L446.569 130.039L439.029 116.79L425.784 124.327L412.539 131.864L405 118.615L391.755 126.152L384.215 112.902L370.97 120.439L363.431 107.19L355.891 93.9407L342.646 101.478L335.107 88.2285L327.567 74.9791L320.027 61.7298L333.272 54.1927L325.733 40.9434L338.977 33.4063L331.438 20.157L323.898 6.90764L316.358 -6.34169L329.603 -13.8788L337.143 -0.629422L350.388 -8.16649L363.633 -15.7036L371.172 -2.45422L384.417 -9.99128L391.957 3.25805L405.201 -4.27901L412.741 8.97032L420.281 22.2197L433.526 14.6826L441.065 27.9319L448.605 41.1813L461.85 33.6442L469.389 46.8935L482.634 39.3565L490.174 52.6058L503.419 45.0687L495.879 31.8194L488.339 18.5701L501.584 11.033L494.044 -2.21633L507.289 -9.75339L520.534 -17.2905L533.779 -24.8275L526.239 -38.0769L539.484 -45.6139L531.944 -58.8633L545.189 -66.4003L537.65 -79.6497L550.894 -87.1867L564.139 -94.7238L556.6 -107.973L549.06 -121.222L562.305 -128.76L569.844 -115.51L577.384 -102.261L584.924 -89.0115L592.463 -75.7622L600.003 -62.5129L586.758 -54.9758L594.298 -41.7265L607.543 -49.2635L615.082 -36.0142L601.837 -28.4771L609.377 -15.2278L596.132 -7.69071L582.887 -0.153648L590.427 13.0957L597.967 26.345L584.722 33.8821L592.261 47.1314L579.017 54.6685L586.556 67.9178L573.312 75.4549L560.067 82.992L546.822 90.529L533.577 98.0661L526.037 84.8168L518.498 71.5674L505.253 79.1045L512.793 92.3538L499.548 99.8909L507.087 113.14L520.332 105.603L533.577 98.0661L541.117 111.315L548.656 124.565L561.901 117.028L554.362 103.778L567.606 96.2413L580.851 88.7042L594.096 81.1672L586.556 67.9178L599.801 60.3808L613.046 52.8437L605.506 39.5944L597.967 26.345L611.211 18.808L603.672 5.55862L616.917 -1.97844L609.377 -15.2278L622.622 -22.7648L615.082 -36.0142L628.327 -43.5512L635.867 -30.3019L649.111 -37.839L662.356 -45.376L654.817 -58.6254L647.277 -71.8747L660.522 -79.4118L668.061 -66.1624L675.601 -52.9131L683.141 -39.6638L690.68 -26.4144L698.22 -13.1651L684.975 -5.62803L692.515 7.6213L679.27 15.1584L686.81 28.4077L673.565 35.9448L681.104 49.1941L667.86 56.7312L654.615 64.2682L641.37 71.8053L628.125 79.3424L635.665 92.5917L648.91 85.0546L656.449 98.304L669.694 90.7669L677.234 104.016L690.479 96.4792L698.018 109.729L684.773 117.266L671.529 124.803L679.068 138.052L665.823 145.589L652.579 153.126L639.334 160.663L626.089 168.2L612.844 175.737L599.599 183.274L592.06 170.025L578.815 177.562L571.275 164.313Z" fill="#E5C3DA"/>
<path d="M329.805 -136.772L337.345 -123.523L344.884 -110.274L358.129 -117.811L365.669 -104.561L378.914 -112.098L386.453 -98.8492L399.698 -106.386L412.943 -113.923L420.482 -100.674L428.022 -87.4246L414.777 -79.8876L422.317 -66.6382L429.857 -53.3889L416.612 -45.8518L424.151 -32.6025L431.691 -19.3531L444.936 -26.8902L452.476 -13.6409L465.72 -21.1779L473.26 -7.9286L486.505 -15.4657L499.75 -23.0027L492.21 -36.2521L505.455 -43.7891L497.915 -57.0385L511.16 -64.5755L503.62 -77.8249L496.081 -91.0742L488.541 -104.324L481.001 -117.573L473.462 -130.822L465.922 -144.072L452.677 -136.534L445.138 -149.784L431.893 -142.247L424.353 -155.496L411.108 -147.959L403.569 -161.208L396.029 -174.458L388.489 -187.707L375.245 -180.17L367.705 -193.419L354.46 -185.882L341.215 -178.345L327.971 -170.808L314.726 -163.271L301.481 -155.734L309.021 -142.485L316.56 -129.235L329.805 -136.772Z" fill="#E5C3DA"/>
</g>
</g>
<defs>
<filter id="filter0_f_459_2" x="-233.016" y="-196.219" width="1140.59" height="1121.49" filterUnits="userSpaceOnUse" color-interpolation-filters="sRGB">
<feFlood flood-opacity="0" result="BackgroundImageFix"/>
<feBlend mode="normal" in="SourceGraphic" in2="BackgroundImageFix" result="shape"/>
<feGaussianBlur stdDeviation="1.4" result="effect1_foregroundBlur_459_2"/>
</filter>
<clipPath id="clip0_459_2">
<rect width="700" height="700" rx="100" fill="white"/>
</clipPath>
</defs>
</svg>
