<svg width="3466" height="408" viewBox="0 0 3466 408" fill="none" xmlns="http://www.w3.org/2000/svg">
<path d="M101.925 33.9748V-0.000190735H169.875V33.9748H203.85V135.9H169.875V203.85H135.9V271.8H203.85V305.775H237.825V373.725H203.85V407.7H33.975V373.725H-2.38419e-07V203.85H33.975V101.925H67.95V33.9748H101.925ZM407.7 33.9748V-0.000190735H509.625V33.9748H577.575V67.9498H611.55V135.9H645.525V305.775H611.55V373.725H543.6V407.7H373.725V373.725H305.775V305.775H271.8V135.9H305.775V67.9498H339.75V33.9748H407.7ZM475.65 101.925H407.7V135.9H373.725V203.85H407.7V237.825H475.65V203.85H509.625V135.9H475.65V101.925ZM815.4 33.9748V-0.000190735H985.275V33.9748H1019.25V101.925H985.275V135.9H849.375V169.875H815.4V271.8H849.375V305.775H917.325V271.8H849.375V203.85H883.35V169.875H1019.25V203.85H1053.22V305.775H1019.25V373.725H951.3V407.7H781.425V373.725H713.475V305.775H679.5V135.9H713.475V67.9498H747.45V33.9748H815.4ZM1223.1 33.9748V-0.000190735H1325.02V33.9748H1392.97V67.9498H1426.95V135.9H1460.92V305.775H1426.95V373.725H1359V407.7H1189.12V373.725H1121.17V305.775H1087.2V135.9H1121.17V67.9498H1155.15V33.9748H1223.1ZM1291.05 101.925H1223.1V135.9H1189.12V203.85H1223.1V237.825H1291.05V203.85H1325.02V135.9H1291.05V101.925ZM1596.82 33.9748V-0.000190735H1664.77V33.9748H1698.75V135.9H1664.77V203.85H1630.8V271.8H1698.75V305.775H1732.72V373.725H1698.75V407.7H1528.87V373.725H1494.9V203.85H1528.87V101.925H1562.85V33.9748H1596.82ZM1800.67 33.9748V-0.000190735H1868.62V33.9748H1902.6V237.825H1936.57V373.725H1902.6V407.7H1800.67V373.725H1766.7V33.9748H1800.67ZM2106.45 33.9748V-0.000190735H2242.35V33.9748H2276.32V101.925H2242.35V135.9H2140.42V169.875H2106.45V237.825H2140.42V271.8H2208.37V237.825H2276.32V271.8H2310.3V373.725H2242.35V407.7H2106.45V373.725H2038.5V339.75H2004.52V271.8H1970.55V135.9H2004.52V67.9498H2038.5V33.9748H2106.45ZM2378.25 67.9498V-0.000190735H2480.17V33.9748H2514.15V135.9H2480.17V237.825H2514.15V271.8H2548.12V237.825H2582.1V169.875H2548.12V67.9498H2582.1V33.9748H2650.05V67.9498H2684.02V135.9H2718V305.775H2684.02V373.725H2650.05V407.7H2412.22V373.725H2378.25V305.775H2344.27V67.9498H2378.25ZM2853.9 33.9748V-0.000190735H3023.77V33.9748H3057.75V101.925H3023.77V135.9H2955.82V101.925H2921.85V135.9H2955.82V169.875H3023.77V203.85H3057.75V237.825H3091.72V339.75H3057.75V373.725H2989.8V407.7H2785.95V373.725H2751.97V271.8H2785.95V237.825H2853.9V271.8H2921.85V237.825H2853.9V203.85H2819.92V169.875H2785.95V67.9498H2819.92V33.9748H2853.9ZM3193.65 33.9748V-0.000190735H3363.52V33.9748H3431.47V135.9H3397.5V203.85H3363.52V237.825H3329.55V271.8H3431.47V305.775H3465.45V373.725H3431.47V407.7H3159.67V373.725H3125.7V305.775H3159.67V237.825H3193.65V203.85H3227.62V169.875H3261.6V135.9H3193.65V101.925H3159.67V33.9748H3193.65Z" fill="black"/>
</svg>
