<svg width="1703" height="324" viewBox="0 0 1703 324" fill="none" xmlns="http://www.w3.org/2000/svg">
<path d="M213.454 186.999C214.42 187.24 215.024 187.603 215.266 188.086C215.507 188.569 215.628 189.415 215.628 190.623C215.386 190.864 215.145 191.227 214.903 191.71C214.903 191.951 214.662 192.555 214.178 193.522L171.778 256.579C170.57 258.512 169.12 259.479 167.429 259.479C166.946 259.479 166.342 259.237 165.617 258.754C165.134 258.512 164.409 257.787 163.442 256.579C162.718 255.613 160.664 255.13 157.282 255.13H5.07354C1.69114 255.13 0.36234 253.559 1.08714 250.419L2.17434 244.258C2.65754 241.117 4.59034 239.547 7.97274 239.547C23.6767 239.547 33.5823 229.52 37.6895 209.467L66.3191 61.9707C70.1847 41.9179 64.2655 31.8915 48.5615 31.8915C45.1791 31.8915 43.8503 30.2003 44.5751 26.8179L45.6623 21.0195C46.1455 17.6371 48.0783 15.9459 51.4607 15.9459H137.712C141.819 15.9459 143.631 17.6371 143.148 21.0195L141.698 26.8179C141.215 30.2003 139.041 31.8915 135.175 31.8915H112.706L78.2783 207.655C74.4127 227.95 79.7279 238.097 94.2239 238.097H106.908C117.297 238.097 127.806 236.647 138.437 233.748C149.067 230.607 159.456 225.413 169.603 218.165C179.992 210.675 189.898 200.287 199.32 186.999L200.77 184.824C201.978 182.891 203.306 181.925 204.756 181.925C205.481 181.925 206.085 182.046 206.568 182.287C207.051 182.529 207.414 182.771 207.655 183.012L213.454 186.999ZM291.709 259.116C276.488 259.116 263.563 255.251 252.932 247.519C242.544 239.547 235.054 229.158 230.464 216.353C226.115 203.307 225.39 189.052 228.289 173.59C231.188 158.369 236.987 144.598 245.684 132.276C254.624 119.713 265.616 109.807 278.663 102.559C291.709 95.3115 305.964 91.6875 321.426 91.6875C332.54 91.6875 342.445 93.9827 351.143 98.5731C360.082 103.163 367.33 109.445 372.887 117.418C378.685 125.391 382.551 134.451 384.484 144.598C386.658 154.745 386.658 165.496 384.484 176.851C381.584 192.072 375.665 205.964 366.726 218.527C357.787 230.849 346.794 240.755 333.748 248.244C320.701 255.492 306.688 259.116 291.709 259.116ZM306.205 239.547C311.762 239.547 317.56 238.097 323.6 235.198C329.882 232.057 335.439 227.346 340.271 221.064C345.103 214.783 348.364 207.051 350.056 197.871C351.505 189.898 351.747 180.959 350.78 171.053C349.814 160.906 347.519 151.363 343.895 142.423C340.271 133.243 335.318 125.753 329.036 119.955C322.755 113.915 315.265 110.895 306.568 110.895C296.662 110.895 287.36 114.76 278.663 122.491C270.207 129.981 264.771 140.128 262.355 152.933C260.905 160.906 260.664 169.845 261.63 179.751C262.838 189.656 265.254 199.199 268.878 208.38C272.502 217.319 277.334 224.809 283.374 230.849C289.656 236.647 297.266 239.547 306.205 239.547ZM488.62 106.546C479.439 106.546 471.829 108.962 465.789 113.794C459.749 118.626 455.038 124.666 451.655 131.914C448.273 138.92 445.857 145.927 444.407 152.933C443.199 159.456 442.837 166.342 443.32 173.59C444.045 180.596 446.461 186.636 450.568 191.71C454.917 196.542 461.561 198.958 470.5 198.958C479.439 198.958 486.687 196.542 492.244 191.71C497.801 186.636 502.15 180.596 505.29 173.59C508.431 166.342 510.606 159.456 511.814 152.933C513.263 145.927 513.746 138.92 513.263 131.914C513.022 124.666 511.089 118.626 507.465 113.794C503.841 108.962 497.559 106.546 488.62 106.546ZM429.911 256.217C423.63 258.15 418.677 261.17 415.053 265.277C411.67 269.384 409.375 273.975 408.167 279.048C407.442 283.88 407.926 288.35 409.617 292.457C411.308 296.806 415.053 300.188 420.851 302.604C426.891 305.262 435.951 306.591 448.031 306.591C462.769 306.591 474.849 304.537 484.271 300.43C493.694 296.323 499.13 290.645 500.579 283.397C501.546 278.082 500.217 274.095 496.593 271.438C492.969 268.78 487.533 266.847 480.285 265.639C473.037 264.431 464.339 263.586 454.192 263.103C444.045 262.861 434.26 261.653 424.838 259.479C415.657 257.304 408.288 253.559 402.731 248.244C397.416 242.929 395.725 235.439 397.658 225.775C399.107 217.803 402.973 211.279 409.254 206.206C415.778 201.132 422.542 197.629 429.549 195.696L437.884 202.944C436.434 202.944 434.381 203.548 431.723 204.756C429.066 205.964 426.65 207.535 424.475 209.467C422.301 211.4 420.972 213.575 420.489 215.991C419.764 219.856 420.489 222.997 422.663 225.413C425.079 227.829 429.549 229.762 436.072 231.211C442.595 232.419 452.138 233.386 464.702 234.111C473.882 234.594 482.58 235.56 490.794 237.01C499.25 238.218 506.619 240.392 512.901 243.533C519.182 246.674 523.773 251.023 526.672 256.579C529.571 262.136 530.175 269.505 528.484 278.686C526.31 289.558 520.753 298.255 511.814 304.779C503.116 311.302 492.727 316.013 480.647 318.912C468.567 322.053 456.366 323.623 444.045 323.623C431.24 323.623 419.764 322.174 409.617 319.275C399.47 316.375 391.859 312.027 386.786 306.228C381.47 300.43 379.658 293.061 381.35 284.122C382.799 275.907 386.665 269.022 392.946 263.465C398.986 258.15 406.114 253.801 414.328 250.419L429.911 256.217ZM467.601 213.816C454.796 213.816 443.682 211.279 434.26 206.206C425.079 201.132 418.314 194.005 413.966 184.824C409.858 175.643 409.013 165.013 411.429 152.933C413.603 141.578 418.314 131.31 425.562 122.129C433.052 112.948 442.354 105.579 453.467 100.023C464.822 94.4659 477.386 91.6875 491.157 91.6875C499.613 91.6875 507.344 93.0163 514.35 95.6739C521.598 98.0899 527.518 101.472 532.108 105.821C533.316 107.029 534.524 107.995 535.732 108.72C536.94 109.203 538.269 109.445 539.718 109.445C541.651 109.445 543.222 108.72 544.43 107.271C545.879 105.821 546.966 103.405 547.691 100.023L548.416 95.3115C548.899 93.8619 549.503 92.6539 550.228 91.6875C550.953 90.4795 552.282 89.7547 554.214 89.5131L570.522 86.2515C571.489 86.0099 572.334 85.8891 573.059 85.8891C574.267 85.8891 574.509 87.4595 573.784 90.6003C571.851 100.989 568.348 109.083 563.274 114.881C558.201 120.438 551.798 122.733 544.067 121.767C546.483 126.84 547.812 131.914 548.054 136.987C548.295 142.061 547.812 147.376 546.604 152.933C544.43 164.047 539.718 174.315 532.47 183.737C525.222 192.918 515.921 200.287 504.566 205.843C493.452 211.159 481.13 213.816 467.601 213.816ZM630.751 259.116C615.531 259.116 602.605 255.251 591.975 247.519C581.586 239.547 574.096 229.158 569.506 216.353C565.157 203.307 564.432 189.052 567.331 173.59C570.231 158.369 576.029 144.598 584.727 132.276C593.666 119.713 604.659 109.807 617.705 102.559C630.751 95.3115 645.006 91.6875 660.468 91.6875C671.582 91.6875 681.487 93.9827 690.185 98.5731C699.124 103.163 706.372 109.445 711.929 117.418C717.727 125.391 721.593 134.451 723.526 144.598C725.7 154.745 725.7 165.496 723.526 176.851C720.627 192.072 714.707 205.964 705.768 218.527C696.829 230.849 685.836 240.755 672.79 248.244C659.743 255.492 645.731 259.116 630.751 259.116ZM645.247 239.547C650.804 239.547 656.603 238.097 662.643 235.198C668.924 232.057 674.481 227.346 679.313 221.064C684.145 214.783 687.407 207.051 689.098 197.871C690.547 189.898 690.789 180.959 689.823 171.053C688.856 160.906 686.561 151.363 682.937 142.423C679.313 133.243 674.36 125.753 668.079 119.955C661.797 113.915 654.307 110.895 645.61 110.895C635.704 110.895 626.403 114.76 617.705 122.491C609.249 129.981 603.813 140.128 601.397 152.933C599.947 160.906 599.706 169.845 600.672 179.751C601.88 189.656 604.296 199.199 607.92 208.38C611.544 217.319 616.376 224.809 622.416 230.849C628.698 236.647 636.308 239.547 645.247 239.547ZM803.939 239.547C807.08 239.547 808.409 241.117 807.925 244.258L806.838 250.419C806.113 253.559 803.939 255.13 800.315 255.13H719.862C716.238 255.13 714.789 253.559 715.513 250.419L716.601 244.258C717.084 241.117 718.896 239.547 722.037 239.547H722.761C730.734 239.547 737.016 237.251 741.606 232.661C746.438 228.071 749.7 221.547 751.391 213.091L777.484 79.0035C778.45 72.9635 779.054 67.6483 779.296 63.0579C779.537 58.2259 778.571 54.2395 776.397 51.0987C774.464 47.9579 770.598 46.1459 764.8 45.6627C762.384 45.4211 761.417 43.9715 761.901 41.3139L763.35 34.0659C763.592 32.8579 764.196 32.0123 765.162 31.5291C766.129 30.8043 767.337 30.3211 768.786 30.0795C779.417 26.9387 788.839 23.1939 797.053 18.8451C805.509 14.4963 814.086 8.57708 822.784 1.08747C823.992 0.362669 824.837 0.000266891 825.321 0.000266891H825.683C826.166 0.000266891 826.408 0.121073 826.408 0.362684L785.094 212.729C783.403 221.185 784.007 227.829 786.906 232.661C789.805 237.251 795.121 239.547 802.852 239.547H803.939ZM904.802 239.547C907.943 239.547 909.272 241.117 908.789 244.258L907.701 250.419C906.977 253.559 904.802 255.13 901.178 255.13H820.725C817.101 255.13 815.652 253.559 816.377 250.419L817.464 244.258C817.947 241.117 819.759 239.547 822.9 239.547H823.625C831.597 239.547 837.879 237.251 842.469 232.661C847.301 228.071 850.563 221.547 852.254 213.091L861.677 164.892C862.643 158.852 863.247 153.537 863.489 148.947C863.73 144.115 862.764 140.128 860.589 136.987C858.657 133.847 854.791 132.035 848.993 131.551C846.577 131.31 845.61 129.86 846.093 127.203L847.543 119.955C847.785 118.747 848.389 117.901 849.355 117.418C850.321 116.693 851.529 116.21 852.979 115.968C863.609 112.827 873.032 109.083 881.246 104.734C889.702 100.385 898.279 94.4659 906.977 86.9763C908.185 86.2515 909.03 85.8891 909.513 85.8891H909.876C910.359 85.8891 910.601 86.0099 910.601 86.2515L885.957 212.729C884.266 221.185 884.87 227.829 887.769 232.661C890.669 237.251 895.984 239.547 903.715 239.547H904.802ZM906.614 25.7307C912.413 26.9387 917.486 30.8043 921.835 37.3275C926.184 43.6091 927.875 49.5283 926.909 55.0851C925.701 60.6419 921.835 65.5947 915.312 69.9435C909.03 74.2923 902.99 75.8627 897.192 74.6547C892.118 73.6883 887.165 69.9435 882.333 63.4203C877.985 57.1387 876.293 51.2195 877.26 45.6627C878.468 40.1059 882.333 35.1531 888.857 30.8043C895.38 26.4555 901.299 24.7643 906.614 25.7307ZM989.89 259.116C977.81 259.116 967.421 256.579 958.723 251.506C950.026 246.191 943.14 239.184 938.067 230.487C932.993 221.789 929.852 212.004 928.644 201.132C927.678 190.26 928.765 179.147 931.906 167.791C936.738 149.913 944.348 135.417 954.737 124.303C965.126 112.948 976.602 104.613 989.165 99.2979C1001.73 93.9827 1013.69 91.3251 1025.04 91.3251C1038.33 91.3251 1048.84 93.3787 1056.57 97.4859C1064.54 101.593 1070.22 107.029 1073.6 113.794C1076.99 120.317 1078.92 127.323 1079.4 134.813C1079.64 138.437 1077.59 140.853 1073.24 142.061L1041.71 149.671C1040.99 149.913 1040.14 150.034 1039.18 150.034C1038.45 150.034 1038.33 149.551 1038.81 148.584C1038.81 147.859 1039.06 146.893 1039.54 145.685C1040.02 144.477 1040.38 143.148 1040.63 141.699C1041.59 136.142 1041.59 130.947 1040.63 126.115C1039.66 121.042 1037.36 116.935 1033.74 113.794C1030.12 110.411 1024.92 108.72 1018.16 108.72C1007.53 108.72 998.587 111.74 991.339 117.78C984.091 123.82 978.414 131.551 974.307 140.974C970.199 150.155 967.179 159.577 965.247 169.241C962.831 180.596 962.227 191.71 963.435 202.582C964.884 213.212 968.629 221.91 974.669 228.675C980.709 235.439 989.407 238.822 1000.76 238.822C1009.7 238.822 1018.52 236.768 1027.22 232.661C1036.16 228.554 1044.73 221.185 1052.95 210.555C1054.4 208.38 1055.97 207.897 1057.66 209.105L1063.09 213.454C1064.3 214.179 1064.18 215.749 1062.73 218.165C1053.79 232.178 1042.92 242.567 1030.12 249.331C1017.31 255.855 1003.9 259.116 989.89 259.116ZM1150.52 259.116C1141.82 259.116 1134.45 257.787 1128.41 255.13C1122.62 252.714 1118.03 249.09 1114.64 244.258C1111.5 239.426 1109.57 233.627 1108.84 226.863C1108.12 220.098 1108.6 212.608 1110.29 204.394L1122.98 137.712C1124.67 129.256 1123.94 122.733 1120.8 118.143C1117.66 113.552 1112.23 111.257 1104.5 111.257H1103.41C1100.27 111.257 1099.06 109.687 1099.78 106.546L1100.87 100.385C1101.6 97.2443 1103.53 95.6739 1106.67 95.6739H1162.12C1164.53 95.6739 1165.38 96.8819 1164.65 99.2979L1144.36 205.481C1143.15 211.279 1142.79 216.715 1143.27 221.789C1144 226.621 1145.93 230.487 1149.07 233.386C1152.45 236.285 1157.77 237.735 1165.02 237.735C1171.3 237.735 1177.94 236.285 1184.95 233.386C1191.96 230.245 1198.24 225.051 1203.79 217.803C1209.59 210.555 1213.7 200.649 1216.12 188.086L1225.9 137.712C1227.59 129.256 1226.87 122.733 1223.73 118.143C1220.83 113.552 1215.51 111.257 1207.78 111.257H1207.06C1203.67 111.257 1202.34 109.687 1203.07 106.546L1204.16 100.385C1204.88 97.2443 1207.06 95.6739 1210.68 95.6739H1264.68C1267.33 95.6739 1268.42 96.8819 1267.94 99.2979L1248.37 199.32C1247.16 205.119 1246.44 210.313 1246.19 214.903C1246.19 219.252 1247.28 222.876 1249.46 225.775C1251.63 228.433 1255.5 230.124 1261.05 230.849C1263.47 231.091 1264.44 232.54 1263.95 235.198L1262.5 242.083C1262.02 244.983 1260.33 246.432 1257.43 246.432C1249.7 246.432 1242.69 246.795 1236.41 247.519C1230.13 248.244 1224.21 249.452 1218.65 251.143C1213.34 252.835 1208.26 255.13 1203.43 258.029C1202.46 258.754 1201.5 259.116 1200.53 259.116H1200.17C1199.69 259.116 1199.44 258.875 1199.44 258.391C1199.69 258.15 1200.41 256.338 1201.62 252.955C1202.83 249.331 1204.76 244.137 1207.42 237.372C1210.32 230.607 1213.94 222.393 1218.29 212.729C1212.25 224.326 1205.73 233.507 1198.72 240.271C1191.96 247.036 1184.59 251.868 1176.61 254.767C1168.64 257.667 1159.94 259.116 1150.52 259.116ZM1426.34 143.511C1424.89 144.235 1423.8 144.598 1423.08 144.598C1421.39 144.598 1420.18 143.873 1419.45 142.423C1414.14 133.243 1408.58 126.115 1402.78 121.042C1397.23 115.968 1391.19 112.344 1384.66 110.17C1378.38 107.754 1371.5 106.546 1364.01 106.546C1356.76 106.546 1350.36 108.237 1344.8 111.619C1339.24 114.76 1335.98 119.23 1335.01 125.028C1333.81 131.551 1334.77 136.746 1337.91 140.611C1341.3 144.477 1345.89 147.497 1351.68 149.671C1357.72 151.846 1364.13 153.779 1370.89 155.47C1378.38 157.403 1385.99 159.577 1393.72 161.993C1401.7 164.409 1408.82 167.55 1415.1 171.415C1421.63 175.281 1426.46 180.234 1429.6 186.274C1432.74 192.314 1433.34 199.924 1431.41 209.105C1429.72 218.286 1425.61 226.742 1419.09 234.473C1412.57 241.963 1403.99 248.003 1393.36 252.593C1382.73 256.942 1370.53 259.116 1356.76 259.116C1349.27 259.116 1342.5 258.391 1336.46 256.942C1330.42 255.492 1324.87 253.439 1319.79 250.781C1318.58 250.056 1317.74 249.694 1317.26 249.694C1315.81 249.694 1314.96 250.419 1314.72 251.868C1314.48 252.11 1314.36 252.472 1314.36 252.955C1314.6 253.439 1314.72 253.922 1314.72 254.405C1314.96 255.855 1315.08 256.7 1315.08 256.942C1314.84 258.633 1313.39 259.479 1310.73 259.479H1302.76C1300.34 259.479 1298.65 258.512 1297.69 256.579L1280.65 205.119C1280.17 203.669 1279.93 202.703 1279.93 202.219C1280.41 200.528 1281.62 199.199 1283.55 198.233L1289.71 194.971C1291.4 194.247 1292.49 193.884 1292.98 193.884C1294.18 193.884 1295.15 194.851 1295.87 196.783C1303.36 212.246 1312.79 223.722 1324.14 231.211C1335.5 238.701 1347.46 242.446 1360.02 242.446C1372.58 242.446 1382.25 240.151 1389.01 235.56C1395.78 230.728 1399.76 224.809 1400.97 217.803C1402.18 212.729 1401.45 208.501 1398.8 205.119C1396.14 201.495 1392.51 198.595 1387.92 196.421C1383.33 194.005 1378.14 192.072 1372.34 190.623C1366.78 188.931 1361.35 187.361 1356.03 185.911C1339.6 181.563 1327.64 176.368 1320.16 170.328C1312.67 164.288 1308.08 158.007 1306.38 151.483C1304.93 144.719 1304.81 138.316 1306.02 132.276C1307.95 121.163 1313.99 111.619 1324.14 103.647C1334.53 95.6739 1348.42 91.6875 1365.82 91.6875C1375.96 91.6875 1384.66 93.0163 1391.91 95.6739C1399.4 98.0899 1404.47 100.264 1407.13 102.197C1408.1 102.68 1408.82 102.922 1409.31 102.922C1410.03 102.922 1410.39 102.559 1410.39 101.835C1410.63 101.351 1410.63 100.747 1410.39 100.023C1410.15 99.2979 1410.03 98.4523 1410.03 97.4859C1409.79 96.5195 1409.67 95.7947 1409.67 95.3115C1409.67 94.5867 1409.67 94.1035 1409.67 93.8619C1410.15 91.6875 1411.6 90.6003 1414.02 90.6003H1419.82C1421.99 90.6003 1423.44 91.8083 1424.16 94.2243L1434.31 134.451C1434.31 135.175 1434.31 135.779 1434.31 136.263C1434.31 136.746 1434.31 137.229 1434.31 137.712C1434.07 139.162 1432.98 140.37 1431.05 141.336L1426.34 143.511ZM1670.17 200.407C1671.86 201.374 1672.46 202.582 1671.98 204.031C1671.98 204.998 1671.5 205.964 1670.53 206.931L1635.38 256.579C1634.17 258.271 1632.72 259.116 1631.03 259.116C1629.82 259.116 1628.85 258.875 1628.13 258.391L1627.04 256.579C1626.56 255.855 1625.71 255.371 1624.51 255.13C1623.54 255.13 1622.45 255.13 1621.24 255.13H1440.04C1436.9 255.13 1435.7 253.559 1436.42 250.419L1438.59 238.097C1438.84 236.889 1439.32 235.802 1440.04 234.835C1440.53 233.869 1441.25 232.903 1442.22 231.936L1635.74 36.2403H1563.99C1554.32 36.2403 1545.87 37.5691 1538.62 40.2267C1531.61 42.8843 1525.09 46.6291 1519.05 51.4611C1513.25 56.0515 1507.21 61.4875 1500.93 67.7691L1499.48 69.2187C1497.55 71.1515 1495.97 72.1179 1494.77 72.1179C1494.04 72.1179 1493.2 71.8763 1492.23 71.3931L1484.98 67.0443C1483.53 66.0779 1482.93 64.8699 1483.17 63.4203C1483.41 62.4539 1483.89 61.4875 1484.62 60.5211L1518.69 14.4963C1519.89 12.8051 1521.46 11.9595 1523.4 11.9595C1524.12 11.9595 1524.73 12.0803 1525.21 12.3219C1525.69 12.5635 1526.42 13.2883 1527.38 14.4963C1528.11 15.2211 1528.95 15.7043 1529.92 15.9459C1531.13 15.9459 1532.21 15.9459 1533.18 15.9459H1700.25C1701.46 15.9459 1702.06 16.4291 1702.06 17.3955L1701.7 19.2075C1701.46 19.6907 1701.09 20.2947 1700.61 21.0195C1700.13 21.7443 1699.64 22.3483 1699.16 22.8315L1492.95 231.574H1548.4C1568.21 231.574 1584.64 230.607 1597.69 228.675C1610.98 226.5 1621.97 222.997 1630.67 218.165C1639.36 213.333 1646.97 206.931 1653.5 198.958L1654.95 197.146C1656.4 195.213 1657.85 194.247 1659.3 194.247C1660.02 194.247 1660.5 194.367 1660.75 194.609C1661.23 194.609 1661.71 194.73 1662.2 194.971L1670.17 200.407Z" fill="black"/>
</svg>
